<svg width="141" height="47" viewBox="0 0 141 47" fill="none" xmlns="http://www.w3.org/2000/svg">
<path d="M5.00852 33H1.86932L10.9489 8.27273H14.0398L23.1193 33H19.9801L12.5909 12.1847H12.3977L5.00852 33ZM6.16761 23.3409H18.821V25.9972H6.16761V23.3409Z" fill="#FF4500"/>
<path d="M31.4574 21.8438V33H28.608V14.4545H31.3608V17.3523H31.6023C32.0369 16.4105 32.697 15.6539 33.5824 15.0824C34.4678 14.5028 35.6108 14.2131 37.0114 14.2131C38.267 14.2131 39.3658 14.4706 40.3075 14.9858C41.2493 15.4929 41.9818 16.2656 42.505 17.304C43.0282 18.3343 43.2898 19.6383 43.2898 21.2159V33H40.4403V21.4091C40.4403 19.9522 40.062 18.8172 39.3054 18.0043C38.5488 17.1832 37.5104 16.7727 36.1903 16.7727C35.2808 16.7727 34.4678 16.9699 33.7514 17.3643C33.0431 17.7588 32.4837 18.3343 32.0732 19.0909C31.6626 19.8475 31.4574 20.7652 31.4574 21.8438ZM55.4995 33.3864C53.954 33.3864 52.5897 32.996 51.4064 32.2152C50.2232 31.4264 49.2975 30.3156 48.6294 28.8828C47.9614 27.442 47.6273 25.7396 47.6273 23.7756C47.6273 21.8277 47.9614 20.1373 48.6294 18.7045C49.2975 17.2718 50.2272 16.165 51.4185 15.3842C52.6098 14.6035 53.9862 14.2131 55.5478 14.2131C56.7551 14.2131 57.709 14.4143 58.4093 14.8168C59.1176 15.2112 59.6569 15.6619 60.0272 16.169C60.4055 16.6681 60.6993 17.0786 60.9086 17.4006H61.15V8.27273H63.9995V33H61.2466V30.1506H60.9086C60.6993 30.4886 60.4015 30.9152 60.0151 31.4304C59.6287 31.9375 59.0774 32.3923 58.361 32.7947C57.6446 33.1892 56.6908 33.3864 55.4995 33.3864ZM55.8858 30.8267C57.0288 30.8267 57.9947 30.5289 58.7836 29.9332C59.5724 29.3295 60.1721 28.4964 60.5826 27.4339C60.9931 26.3634 61.1983 25.1278 61.1983 23.7273C61.1983 22.3428 60.9971 21.1314 60.5946 20.093C60.1922 19.0466 59.5965 18.2337 58.8077 17.6541C58.0189 17.0665 57.0449 16.7727 55.8858 16.7727C54.6784 16.7727 53.6723 17.0826 52.8674 17.7024C52.0705 18.3142 51.4708 19.1473 51.0684 20.2017C50.6739 21.2481 50.4767 22.4233 50.4767 23.7273C50.4767 25.0473 50.678 26.2467 51.0804 27.3253C51.4909 28.3958 52.0946 29.2491 52.8915 29.8849C53.6964 30.5128 54.6945 30.8267 55.8858 30.8267ZM69.6138 33V14.4545H72.3667V17.2557H72.5598C72.8979 16.3381 73.5096 15.5935 74.3951 15.022C75.2805 14.4505 76.2786 14.1648 77.3894 14.1648C77.5987 14.1648 77.8603 14.1688 78.1742 14.1768C78.4881 14.1849 78.7256 14.197 78.8865 14.2131V17.1108C78.79 17.0866 78.5686 17.0504 78.2225 17.0021C77.8844 16.9458 77.5262 16.9176 77.1479 16.9176C76.2464 16.9176 75.4415 17.1068 74.7331 17.4851C74.0328 17.8553 73.4775 18.3705 73.0669 19.0305C72.6645 19.6825 72.4632 20.4271 72.4632 21.2642V33H69.6138ZM89.4753 33.3864C87.6884 33.3864 86.147 32.992 84.851 32.2031C83.5632 31.4062 82.5691 30.2955 81.8688 28.8707C81.1766 27.438 80.8304 25.7718 80.8304 23.8722C80.8304 21.9725 81.1766 20.2983 81.8688 18.8494C82.5691 17.3925 83.543 16.2576 84.7907 15.4446C86.0463 14.6236 87.5113 14.2131 89.1855 14.2131C90.1515 14.2131 91.1053 14.3741 92.0471 14.696C92.9888 15.018 93.8461 15.5412 94.6188 16.2656C95.3915 16.982 96.0073 17.9318 96.4661 19.1151C96.9249 20.2983 97.1543 21.7552 97.1543 23.4858V24.6932H82.8588V22.2301H94.2566C94.2566 21.1837 94.0473 20.25 93.6287 19.429C93.2182 18.608 92.6306 17.96 91.8659 17.4851C91.1093 17.0102 90.2159 16.7727 89.1855 16.7727C88.0506 16.7727 87.0686 17.0545 86.2395 17.6179C85.4185 18.1733 84.7866 18.8977 84.3439 19.7912C83.9012 20.6847 83.6799 21.6425 83.6799 22.6648V24.3068C83.6799 25.7074 83.9213 26.8946 84.4043 27.8686C84.8953 28.8345 85.5755 29.571 86.4448 30.0781C87.3141 30.5772 88.3243 30.8267 89.4753 30.8267C90.2239 30.8267 90.9 30.7221 91.5037 30.5128C92.1155 30.2955 92.6427 29.9735 93.0854 29.5469C93.5281 29.1122 93.8702 28.5729 94.1117 27.929L96.8645 28.7017C96.5748 29.6354 96.0878 30.4564 95.4036 31.1648C94.7194 31.8651 93.8742 32.4124 92.8681 32.8068C91.8619 33.1932 90.731 33.3864 89.4753 33.3864ZM101.489 33V14.4545H104.338V33H101.489ZM102.938 11.3636C102.382 11.3636 101.903 11.1745 101.501 10.7962C101.106 10.4179 100.909 9.96307 100.909 9.43182C100.909 8.90057 101.106 8.44579 101.501 8.06747C101.903 7.68916 102.382 7.5 102.938 7.5C103.493 7.5 103.968 7.68916 104.362 8.06747C104.765 8.44579 104.966 8.90057 104.966 9.43182C104.966 9.96307 104.765 10.4179 104.362 10.7962C103.968 11.1745 103.493 11.3636 102.938 11.3636Z" fill="#CEC7BB"/>
<path d="M62.233 33.8182H63.7045L67.1648 42.2699H67.2841L70.7443 33.8182H72.2159V44H71.0625V36.2642H70.9631L67.7812 44H66.6676L63.4858 36.2642H63.3864V44H62.233V33.8182ZM76.7761 44.179C76.2922 44.179 75.853 44.0878 75.4586 43.9055C75.0642 43.7199 74.751 43.4531 74.519 43.1051C74.287 42.7538 74.171 42.3295 74.171 41.8324C74.171 41.3949 74.2572 41.0402 74.4295 40.7685C74.6019 40.4934 74.8322 40.2779 75.1206 40.1222C75.4089 39.9664 75.7271 39.8504 76.0751 39.7741C76.4264 39.6946 76.7794 39.6316 77.1341 39.5852C77.5981 39.5256 77.9743 39.4808 78.2626 39.451C78.5543 39.4179 78.7664 39.3632 78.899 39.2869C79.0349 39.2107 79.1028 39.0781 79.1028 38.8892V38.8494C79.1028 38.3589 78.9686 37.9777 78.7001 37.706C78.435 37.4342 78.0323 37.2983 77.492 37.2983C76.9319 37.2983 76.4927 37.4209 76.1745 37.6662C75.8564 37.9115 75.6326 38.1733 75.5034 38.4517L74.3897 38.054C74.5886 37.59 74.8538 37.2287 75.1852 36.9702C75.5199 36.7083 75.8845 36.526 76.2789 36.4233C76.6767 36.3172 77.0678 36.2642 77.4522 36.2642C77.6975 36.2642 77.9792 36.294 78.2974 36.3537C78.6189 36.41 78.9288 36.5277 79.2271 36.7067C79.5287 36.8857 79.7789 37.1558 79.9778 37.517C80.1767 37.8783 80.2761 38.3622 80.2761 38.9688V44H79.1028V42.9659H79.0431C78.9636 43.1316 78.831 43.3089 78.6454 43.4979C78.4598 43.6868 78.2129 43.8475 77.9047 43.9801C77.5964 44.1127 77.2202 44.179 76.7761 44.179ZM76.9551 43.125C77.4191 43.125 77.8102 43.0339 78.1284 42.8516C78.4499 42.6693 78.6918 42.4339 78.8542 42.1456C79.0199 41.8572 79.1028 41.554 79.1028 41.2358V40.1619C79.0531 40.2216 78.9437 40.2763 78.7747 40.326C78.609 40.3724 78.4167 40.4138 78.198 40.4503C77.9825 40.4834 77.7721 40.5133 77.5666 40.5398C77.3644 40.563 77.2003 40.5829 77.0744 40.5994C76.7695 40.6392 76.4844 40.7038 76.2193 40.7933C75.9574 40.8795 75.7453 41.0104 75.5829 41.1861C75.4238 41.3584 75.3443 41.5937 75.3443 41.892C75.3443 42.2997 75.4951 42.608 75.7967 42.8168C76.1016 43.0223 76.4877 43.125 76.9551 43.125ZM83.5114 41.2159L83.4915 39.7642H83.7301L87.071 36.3636H88.5227L84.9631 39.9631H84.8636L83.5114 41.2159ZM82.4176 44V33.8182H83.5909V44H82.4176ZM87.2699 44L84.2869 40.2216L85.1222 39.4062L88.7614 44H87.2699ZM92.28 44.179C91.7961 44.179 91.3569 44.0878 90.9625 43.9055C90.5681 43.7199 90.2549 43.4531 90.0229 43.1051C89.7909 42.7538 89.6749 42.3295 89.6749 41.8324C89.6749 41.3949 89.7611 41.0402 89.9334 40.7685C90.1058 40.4934 90.3361 40.2779 90.6245 40.1222C90.9128 39.9664 91.231 39.8504 91.579 39.7741C91.9303 39.6946 92.2833 39.6316 92.638 39.5852C93.102 39.5256 93.4782 39.4808 93.7665 39.451C94.0582 39.4179 94.2703 39.3632 94.4029 39.2869C94.5388 39.2107 94.6067 39.0781 94.6067 38.8892V38.8494C94.6067 38.3589 94.4725 37.9777 94.204 37.706C93.9389 37.4342 93.5362 37.2983 92.9959 37.2983C92.4358 37.2983 91.9966 37.4209 91.6784 37.6662C91.3603 37.9115 91.1365 38.1733 91.0073 38.4517L89.8936 38.054C90.0925 37.59 90.3577 37.2287 90.6891 36.9702C91.0239 36.7083 91.3884 36.526 91.7828 36.4233C92.1806 36.3172 92.5717 36.2642 92.9561 36.2642C93.2014 36.2642 93.4831 36.294 93.8013 36.3537C94.1228 36.41 94.4327 36.5277 94.731 36.7067C95.0326 36.8857 95.2828 37.1558 95.4817 37.517C95.6806 37.8783 95.78 38.3622 95.78 38.9688V44H94.6067V42.9659H94.5471C94.4675 43.1316 94.3349 43.3089 94.1493 43.4979C93.9637 43.6868 93.7168 43.8475 93.4086 43.9801C93.1003 44.1127 92.7241 44.179 92.28 44.179ZM92.459 43.125C92.923 43.125 93.3141 43.0339 93.6323 42.8516C93.9538 42.6693 94.1957 42.4339 94.3581 42.1456C94.5239 41.8572 94.6067 41.554 94.6067 41.2358V40.1619C94.557 40.2216 94.4476 40.2763 94.2786 40.326C94.1129 40.3724 93.9206 40.4138 93.7019 40.4503C93.4864 40.4834 93.276 40.5133 93.0705 40.5398C92.8683 40.563 92.7042 40.5829 92.5783 40.5994C92.2734 40.6392 91.9883 40.7038 91.7232 40.7933C91.4614 40.8795 91.2492 41.0104 91.0868 41.1861C90.9277 41.3584 90.8482 41.5937 90.8482 41.892C90.8482 42.2997 90.999 42.608 91.3006 42.8168C91.6055 43.0223 91.9917 43.125 92.459 43.125ZM97.9215 44V36.3636H99.055V37.517H99.1346C99.2738 37.1392 99.5257 36.8326 99.8903 36.5973C100.255 36.362 100.666 36.2443 101.123 36.2443C101.209 36.2443 101.317 36.246 101.446 36.2493C101.576 36.2526 101.673 36.2576 101.74 36.2642V37.4574C101.7 37.4474 101.609 37.4325 101.466 37.4126C101.327 37.3894 101.18 37.3778 101.024 37.3778C100.653 37.3778 100.321 37.4557 100.029 37.6115C99.7411 37.764 99.5124 37.9761 99.3434 38.2479C99.1777 38.5163 99.0948 38.8229 99.0948 39.1676V44H97.9215ZM106.1 44.1591C105.364 44.1591 104.729 43.9967 104.196 43.6719C103.665 43.3438 103.256 42.8864 102.968 42.2997C102.683 41.7098 102.54 41.0237 102.54 40.2415C102.54 39.4593 102.683 38.7699 102.968 38.1733C103.256 37.5734 103.657 37.1061 104.171 36.7713C104.688 36.4332 105.291 36.2642 105.98 36.2642C106.378 36.2642 106.771 36.3305 107.159 36.4631C107.547 36.5956 107.9 36.8111 108.218 37.1094C108.536 37.4044 108.789 37.7955 108.978 38.2827C109.167 38.7699 109.262 39.3698 109.262 40.0824V40.5795H103.375V39.5653H108.069C108.069 39.1345 107.982 38.75 107.81 38.4119C107.641 38.0739 107.399 37.8071 107.084 37.6115C106.773 37.416 106.405 37.3182 105.98 37.3182C105.513 37.3182 105.109 37.4342 104.767 37.6662C104.429 37.8949 104.169 38.1932 103.987 38.5611C103.805 38.929 103.713 39.3234 103.713 39.7443V40.4205C103.713 40.9972 103.813 41.486 104.012 41.8871C104.214 42.2848 104.494 42.5881 104.852 42.7969C105.21 43.0024 105.626 43.1051 106.1 43.1051C106.408 43.1051 106.686 43.062 106.935 42.9759C107.187 42.8864 107.404 42.7538 107.586 42.5781C107.769 42.3991 107.909 42.1771 108.009 41.9119L109.142 42.2301C109.023 42.6146 108.823 42.9527 108.541 43.2443C108.259 43.5327 107.911 43.758 107.497 43.9205C107.083 44.0795 106.617 44.1591 106.1 44.1591ZM117.058 36.3636L114.235 44H113.041L110.218 36.3636H111.49L113.598 42.4489H113.678L115.786 36.3636H117.058ZM118.607 44V36.3636H119.78V44H118.607ZM119.204 35.0909C118.975 35.0909 118.778 35.013 118.612 34.8572C118.45 34.7015 118.368 34.5142 118.368 34.2955C118.368 34.0767 118.45 33.8894 118.612 33.7337C118.778 33.5779 118.975 33.5 119.204 33.5C119.432 33.5 119.628 33.5779 119.79 33.7337C119.956 33.8894 120.039 34.0767 120.039 34.2955C120.039 34.5142 119.956 34.7015 119.79 34.8572C119.628 35.013 119.432 35.0909 119.204 35.0909ZM125.032 44.1591C124.316 44.1591 123.699 43.9901 123.182 43.652C122.665 43.3139 122.267 42.8482 121.989 42.255C121.711 41.6617 121.571 40.9839 121.571 40.2216C121.571 39.446 121.714 38.7616 121.999 38.1683C122.287 37.5717 122.688 37.1061 123.202 36.7713C123.719 36.4332 124.322 36.2642 125.012 36.2642C125.549 36.2642 126.033 36.3636 126.463 36.5625C126.894 36.7614 127.247 37.0398 127.522 37.3977C127.797 37.7557 127.968 38.1733 128.034 38.6506H126.861C126.772 38.3026 126.573 37.9943 126.265 37.7259C125.96 37.4541 125.549 37.3182 125.032 37.3182C124.574 37.3182 124.173 37.4375 123.828 37.6761C123.487 37.9115 123.22 38.2446 123.028 38.6754C122.839 39.103 122.745 39.6051 122.745 40.1818C122.745 40.7718 122.837 41.2855 123.023 41.723C123.212 42.1605 123.477 42.5002 123.819 42.7422C124.163 42.9841 124.568 43.1051 125.032 43.1051C125.337 43.1051 125.613 43.0521 125.862 42.946C126.11 42.84 126.321 42.6875 126.493 42.4886C126.666 42.2898 126.788 42.0511 126.861 41.7727H128.034C127.968 42.2235 127.804 42.6295 127.542 42.9908C127.284 43.3487 126.941 43.6338 126.513 43.8459C126.089 44.0547 125.595 44.1591 125.032 44.1591ZM130.923 39.4062V44H129.75V33.8182H130.923V37.5568H131.022C131.201 37.1624 131.47 36.8492 131.828 36.6172C132.189 36.3819 132.67 36.2642 133.27 36.2642C133.79 36.2642 134.246 36.3686 134.637 36.5774C135.028 36.7829 135.331 37.0994 135.547 37.527C135.765 37.9512 135.875 38.4915 135.875 39.1477V44H134.701V39.2273C134.701 38.6207 134.544 38.1518 134.229 37.8203C133.917 37.4856 133.485 37.3182 132.931 37.3182C132.547 37.3182 132.202 37.3994 131.897 37.5618C131.596 37.7242 131.357 37.9612 131.181 38.2727C131.009 38.5843 130.923 38.9621 130.923 39.4062Z" fill="#FF4500"/>
<line x1="0.985077" y1="39.75" x2="59.0097" y2="39.75" stroke="#CEC7BB"/>
</svg>
